<svg width="32" height="32" viewBox="0 0 32 32" fill="none" xmlns="http://www.w3.org/2000/svg">
  <!-- Background circle -->
  <circle cx="16" cy="16" r="16" fill="#F5E6D3"/>
  
  <!-- Karité nut shape -->
  <path d="M16 4C10 4 6 8 6 14C6 18 8 22 10 24C12 26 14 28 16 28C18 28 20 26 22 24C24 22 26 18 26 14C26 8 22 4 16 4Z" fill="#8B4513" opacity="0.9"/>
  
  <!-- Leaf decoration -->
  <path d="M12 10C12 10 14 8 16 8C18 8 20 10 20 10C20 12 18 14 16 14C14 14 12 12 12 10Z" fill="#228B22" opacity="0.8"/>
  
  <!-- S letter -->
  <path d="M13 16C13 16 14 15 16 15C18 15 19 16 19 17C19 18 18 19 16 19C14 19 13 18 13 17" stroke="#FFD700" stroke-width="1.5" fill="none" stroke-linecap="round"/>
  
  <!-- è accent -->
  <circle cx="17" cy="14" r="0.5" fill="#FFD700"/>
  
  <!-- V letter -->
  <path d="M11 20L13 24L15 20" stroke="#FFD700" stroke-width="1.5" fill="none" stroke-linecap="round" stroke-linejoin="round"/>
  
  <!-- K letter -->
  <path d="M17 20V24M17 22L19 20M17 22L19 24" stroke="#FFD700" stroke-width="1.5" fill="none" stroke-linecap="round" stroke-linejoin="round"/>
  
  <!-- Small decorative dots -->
  <circle cx="8" cy="8" r="1" fill="#FFD700" opacity="0.6"/>
  <circle cx="24" cy="8" r="1" fill="#FFD700" opacity="0.6"/>
  <circle cx="8" cy="24" r="1" fill="#FFD700" opacity="0.6"/>
  <circle cx="24" cy="24" r="1" fill="#FFD700" opacity="0.6"/>
</svg>
